<mxfile host="app.diagrams.net" modified="2023-09-19T03:51:40.675Z" agent="Mozilla/5.0 (Windows NT 10.0; Win64; x64) AppleWebKit/537.36 (KHTML, like Gecko) Chrome/116.0.0.0 Safari/537.36" etag="VU6N65Rgh1TCaOUcoSFT" version="21.7.2" type="github" pages="2">
  <diagram id="prtHgNgQTEPvFCAcTncT" name="outbound">
    <mxGraphModel dx="677" dy="465" grid="1" gridSize="10" guides="1" tooltips="1" connect="1" arrows="1" fold="1" page="1" pageScale="1" pageWidth="827" pageHeight="1169" math="0" shadow="0">
      <root>
        <mxCell id="0" />
        <mxCell id="1" parent="0" />
        <mxCell id="dNxyNK7c78bLwvsdeMH5-19" value="" style="swimlane;html=1;childLayout=stackLayout;resizeParent=1;resizeParentMax=0;horizontal=0;startSize=20;horizontalStack=0;movable=1;resizable=1;rotatable=1;deletable=1;editable=1;locked=0;connectable=1;labelBackgroundColor=none;rounded=0;" parent="1" vertex="1">
          <mxGeometry x="130" y="120" width="440" height="360" as="geometry" />
        </mxCell>
        <mxCell id="dNxyNK7c78bLwvsdeMH5-27" value="" style="edgeStyle=orthogonalEdgeStyle;rounded=0;orthogonalLoop=1;jettySize=auto;html=1;dashed=1;endArrow=none;endFill=0;movable=1;resizable=1;rotatable=1;deletable=1;editable=1;locked=0;connectable=1;labelBackgroundColor=none;fontColor=default;" parent="dNxyNK7c78bLwvsdeMH5-19" source="dNxyNK7c78bLwvsdeMH5-24" target="dNxyNK7c78bLwvsdeMH5-26" edge="1">
          <mxGeometry relative="1" as="geometry" />
        </mxCell>
        <mxCell id="dNxyNK7c78bLwvsdeMH5-31" style="edgeStyle=orthogonalEdgeStyle;rounded=0;orthogonalLoop=1;jettySize=auto;html=1;endArrow=classic;endFill=1;movable=1;resizable=1;rotatable=1;deletable=1;editable=1;locked=0;connectable=1;labelBackgroundColor=none;fontColor=default;" parent="dNxyNK7c78bLwvsdeMH5-19" source="dNxyNK7c78bLwvsdeMH5-28" target="dNxyNK7c78bLwvsdeMH5-30" edge="1">
          <mxGeometry relative="1" as="geometry" />
        </mxCell>
        <mxCell id="dNxyNK7c78bLwvsdeMH5-35" style="edgeStyle=orthogonalEdgeStyle;rounded=0;orthogonalLoop=1;jettySize=auto;html=1;endArrow=classic;endFill=1;movable=1;resizable=1;rotatable=1;deletable=1;editable=1;locked=0;connectable=1;labelBackgroundColor=none;fontColor=default;" parent="dNxyNK7c78bLwvsdeMH5-19" source="dNxyNK7c78bLwvsdeMH5-28" target="dNxyNK7c78bLwvsdeMH5-34" edge="1">
          <mxGeometry relative="1" as="geometry" />
        </mxCell>
        <mxCell id="dNxyNK7c78bLwvsdeMH5-38" style="edgeStyle=orthogonalEdgeStyle;rounded=0;orthogonalLoop=1;jettySize=auto;html=1;endArrow=classic;endFill=1;movable=1;resizable=1;rotatable=1;deletable=1;editable=1;locked=0;connectable=1;labelBackgroundColor=none;fontColor=default;" parent="dNxyNK7c78bLwvsdeMH5-19" source="dNxyNK7c78bLwvsdeMH5-26" target="dNxyNK7c78bLwvsdeMH5-36" edge="1">
          <mxGeometry relative="1" as="geometry">
            <Array as="points">
              <mxPoint x="180" y="340" />
              <mxPoint x="400" y="340" />
            </Array>
          </mxGeometry>
        </mxCell>
        <mxCell id="dNxyNK7c78bLwvsdeMH5-20" value="Vendor" style="swimlane;html=1;startSize=20;horizontal=0;movable=1;resizable=1;rotatable=1;deletable=1;editable=1;locked=0;connectable=1;labelBackgroundColor=none;rounded=0;" parent="dNxyNK7c78bLwvsdeMH5-19" vertex="1">
          <mxGeometry x="20" width="420" height="120" as="geometry" />
        </mxCell>
        <mxCell id="dNxyNK7c78bLwvsdeMH5-25" value="" style="edgeStyle=orthogonalEdgeStyle;rounded=0;orthogonalLoop=1;jettySize=auto;html=1;movable=1;resizable=1;rotatable=1;deletable=1;editable=1;locked=0;connectable=1;labelBackgroundColor=none;fontColor=default;" parent="dNxyNK7c78bLwvsdeMH5-20" source="dNxyNK7c78bLwvsdeMH5-23" target="dNxyNK7c78bLwvsdeMH5-24" edge="1">
          <mxGeometry relative="1" as="geometry" />
        </mxCell>
        <mxCell id="dNxyNK7c78bLwvsdeMH5-23" value="" style="ellipse;whiteSpace=wrap;html=1;movable=1;resizable=1;rotatable=1;deletable=1;editable=1;locked=0;connectable=1;labelBackgroundColor=none;rounded=0;" parent="dNxyNK7c78bLwvsdeMH5-20" vertex="1">
          <mxGeometry x="40" y="40" width="40" height="40" as="geometry" />
        </mxCell>
        <mxCell id="dNxyNK7c78bLwvsdeMH5-24" value="" style="rounded=0;whiteSpace=wrap;html=1;fontFamily=Helvetica;fontSize=12;align=center;movable=1;resizable=1;rotatable=1;deletable=1;editable=1;locked=0;connectable=1;labelBackgroundColor=none;" parent="dNxyNK7c78bLwvsdeMH5-20" vertex="1">
          <mxGeometry x="120" y="30" width="80" height="60" as="geometry" />
        </mxCell>
        <mxCell id="dNxyNK7c78bLwvsdeMH5-33" value="" style="edgeStyle=orthogonalEdgeStyle;rounded=0;orthogonalLoop=1;jettySize=auto;html=1;endArrow=classic;endFill=1;movable=1;resizable=1;rotatable=1;deletable=1;editable=1;locked=0;connectable=1;labelBackgroundColor=none;fontColor=default;" parent="dNxyNK7c78bLwvsdeMH5-20" source="dNxyNK7c78bLwvsdeMH5-30" target="dNxyNK7c78bLwvsdeMH5-32" edge="1">
          <mxGeometry relative="1" as="geometry" />
        </mxCell>
        <mxCell id="dNxyNK7c78bLwvsdeMH5-30" value="" style="rounded=0;whiteSpace=wrap;html=1;fontFamily=Helvetica;fontSize=12;align=center;movable=1;resizable=1;rotatable=1;deletable=1;editable=1;locked=0;connectable=1;labelBackgroundColor=none;" parent="dNxyNK7c78bLwvsdeMH5-20" vertex="1">
          <mxGeometry x="240" y="30" width="80" height="60" as="geometry" />
        </mxCell>
        <mxCell id="dNxyNK7c78bLwvsdeMH5-32" value="" style="ellipse;whiteSpace=wrap;html=1;movable=1;resizable=1;rotatable=1;deletable=1;editable=1;locked=0;connectable=1;labelBackgroundColor=none;rounded=0;" parent="dNxyNK7c78bLwvsdeMH5-20" vertex="1">
          <mxGeometry x="360" y="40" width="40" height="40" as="geometry" />
        </mxCell>
        <mxCell id="dNxyNK7c78bLwvsdeMH5-21" value="WMS" style="swimlane;html=1;startSize=20;horizontal=0;movable=1;resizable=1;rotatable=1;deletable=1;editable=1;locked=0;connectable=1;labelBackgroundColor=none;rounded=0;" parent="dNxyNK7c78bLwvsdeMH5-19" vertex="1">
          <mxGeometry x="20" y="120" width="420" height="120" as="geometry" />
        </mxCell>
        <mxCell id="dNxyNK7c78bLwvsdeMH5-29" value="" style="edgeStyle=orthogonalEdgeStyle;rounded=0;orthogonalLoop=1;jettySize=auto;html=1;endArrow=classic;endFill=1;movable=1;resizable=1;rotatable=1;deletable=1;editable=1;locked=0;connectable=1;labelBackgroundColor=none;fontColor=default;" parent="dNxyNK7c78bLwvsdeMH5-21" source="dNxyNK7c78bLwvsdeMH5-26" target="dNxyNK7c78bLwvsdeMH5-28" edge="1">
          <mxGeometry relative="1" as="geometry" />
        </mxCell>
        <mxCell id="dNxyNK7c78bLwvsdeMH5-26" value="" style="rounded=0;whiteSpace=wrap;html=1;fontFamily=Helvetica;fontSize=12;align=center;movable=1;resizable=1;rotatable=1;deletable=1;editable=1;locked=0;connectable=1;labelBackgroundColor=none;" parent="dNxyNK7c78bLwvsdeMH5-21" vertex="1">
          <mxGeometry x="120" y="30" width="80" height="60" as="geometry" />
        </mxCell>
        <mxCell id="dNxyNK7c78bLwvsdeMH5-28" value="" style="rhombus;whiteSpace=wrap;html=1;fontFamily=Helvetica;fontSize=12;align=center;movable=1;resizable=1;rotatable=1;deletable=1;editable=1;locked=0;connectable=1;labelBackgroundColor=none;rounded=0;" parent="dNxyNK7c78bLwvsdeMH5-21" vertex="1">
          <mxGeometry x="260" y="40" width="40" height="40" as="geometry" />
        </mxCell>
        <mxCell id="dNxyNK7c78bLwvsdeMH5-22" value="SAP" style="swimlane;html=1;startSize=20;horizontal=0;movable=1;resizable=1;rotatable=1;deletable=1;editable=1;locked=0;connectable=1;labelBackgroundColor=none;rounded=0;" parent="dNxyNK7c78bLwvsdeMH5-19" vertex="1">
          <mxGeometry x="20" y="240" width="420" height="120" as="geometry" />
        </mxCell>
        <mxCell id="dNxyNK7c78bLwvsdeMH5-37" value="" style="edgeStyle=orthogonalEdgeStyle;rounded=0;orthogonalLoop=1;jettySize=auto;html=1;endArrow=classic;endFill=1;movable=1;resizable=1;rotatable=1;deletable=1;editable=1;locked=0;connectable=1;labelBackgroundColor=none;fontColor=default;" parent="dNxyNK7c78bLwvsdeMH5-22" source="dNxyNK7c78bLwvsdeMH5-34" target="dNxyNK7c78bLwvsdeMH5-36" edge="1">
          <mxGeometry relative="1" as="geometry" />
        </mxCell>
        <mxCell id="dNxyNK7c78bLwvsdeMH5-34" value="" style="rounded=0;whiteSpace=wrap;html=1;fontFamily=Helvetica;fontSize=12;align=center;movable=1;resizable=1;rotatable=1;deletable=1;editable=1;locked=0;connectable=1;labelBackgroundColor=none;" parent="dNxyNK7c78bLwvsdeMH5-22" vertex="1">
          <mxGeometry x="240" y="20" width="80" height="60" as="geometry" />
        </mxCell>
        <mxCell id="dNxyNK7c78bLwvsdeMH5-36" value="" style="rhombus;whiteSpace=wrap;html=1;fontFamily=Helvetica;fontSize=12;align=center;movable=1;resizable=1;rotatable=1;deletable=1;editable=1;locked=0;connectable=1;labelBackgroundColor=none;rounded=0;" parent="dNxyNK7c78bLwvsdeMH5-22" vertex="1">
          <mxGeometry x="360" y="30" width="40" height="40" as="geometry" />
        </mxCell>
      </root>
    </mxGraphModel>
  </diagram>
  <diagram id="B-M2bU009BM_8Y_pbzYv" name="Page-2">
    <mxGraphModel dx="1713" dy="1689" grid="1" gridSize="10" guides="1" tooltips="1" connect="1" arrows="1" fold="1" page="1" pageScale="1" pageWidth="850" pageHeight="1100" math="0" shadow="0">
      <root>
        <mxCell id="0" />
        <mxCell id="1" parent="0" />
        <mxCell id="QeKCGX9Y87ppXaSMYQgq-1" value="Outbound Process" style="swimlane;whiteSpace=wrap;html=1;" vertex="1" parent="1">
          <mxGeometry x="-320" y="-110" width="2440" height="2011" as="geometry" />
        </mxCell>
        <mxCell id="g4Tu53j7OXlI4C-ANw2K-3" value="WMS" style="swimlane;whiteSpace=wrap;html=1;" vertex="1" parent="QeKCGX9Y87ppXaSMYQgq-1">
          <mxGeometry x="320" y="23" width="1329" height="1988" as="geometry" />
        </mxCell>
        <mxCell id="A8csdUFqLkKtNQUayESd-123" value="the produce adopts direct put-away to pick location, usually without formal replenishment rules" style="shape=note;whiteSpace=wrap;html=1;backgroundOutline=1;darkOpacity=0.05;rounded=1;fillColor=#FFFF99;" vertex="1" parent="g4Tu53j7OXlI4C-ANw2K-3">
          <mxGeometry x="50" y="867" width="160" height="87" as="geometry" />
        </mxCell>
        <mxCell id="A8csdUFqLkKtNQUayESd-131" value="&lt;font color=&quot;#3333ff&quot;&gt;&lt;br&gt;Replenishment Task&lt;/font&gt;" style="rounded=0;whiteSpace=wrap;html=1;" vertex="1" parent="g4Tu53j7OXlI4C-ANw2K-3">
          <mxGeometry x="9.62" y="1026" width="720" height="197" as="geometry" />
        </mxCell>
        <mxCell id="A8csdUFqLkKtNQUayESd-142" style="edgeStyle=orthogonalEdgeStyle;rounded=1;orthogonalLoop=1;jettySize=auto;html=1;exitX=0.5;exitY=1;exitDx=0;exitDy=0;" edge="1" parent="g4Tu53j7OXlI4C-ANw2K-3" source="Oo9Ps6nGQFib3HuytZvL-118" target="A8csdUFqLkKtNQUayESd-141">
          <mxGeometry relative="1" as="geometry" />
        </mxCell>
        <mxCell id="Oo9Ps6nGQFib3HuytZvL-118" value="&lt;font color=&quot;#3333ff&quot;&gt;&lt;br&gt;&lt;br&gt;&lt;br&gt;&lt;br&gt;&lt;br&gt;Picking Tasks&lt;/font&gt;" style="rounded=0;whiteSpace=wrap;html=1;" vertex="1" parent="g4Tu53j7OXlI4C-ANw2K-3">
          <mxGeometry x="740" y="1146.5" width="560" height="93" as="geometry" />
        </mxCell>
        <mxCell id="Oo9Ps6nGQFib3HuytZvL-6" style="edgeStyle=orthogonalEdgeStyle;orthogonalLoop=1;jettySize=auto;html=1;exitX=0.5;exitY=1;exitDx=0;exitDy=0;entryX=0.5;entryY=0;entryDx=0;entryDy=0;" edge="1" parent="g4Tu53j7OXlI4C-ANw2K-3" source="Oo9Ps6nGQFib3HuytZvL-4" target="Oo9Ps6nGQFib3HuytZvL-5">
          <mxGeometry relative="1" as="geometry" />
        </mxCell>
        <mxCell id="Oo9Ps6nGQFib3HuytZvL-4" value="Generate PO List" style="rounded=1;whiteSpace=wrap;html=1;" vertex="1" parent="g4Tu53j7OXlI4C-ANw2K-3">
          <mxGeometry x="350" y="317" width="220" height="60" as="geometry" />
        </mxCell>
        <mxCell id="Oo9Ps6nGQFib3HuytZvL-57" style="edgeStyle=orthogonalEdgeStyle;rounded=1;orthogonalLoop=1;jettySize=auto;html=1;exitX=1;exitY=0.5;exitDx=0;exitDy=0;entryX=0;entryY=0.5;entryDx=0;entryDy=0;" edge="1" parent="g4Tu53j7OXlI4C-ANw2K-3" source="Oo9Ps6nGQFib3HuytZvL-5" target="A8csdUFqLkKtNQUayESd-3">
          <mxGeometry relative="1" as="geometry" />
        </mxCell>
        <mxCell id="Oo9Ps6nGQFib3HuytZvL-58" value="Y" style="edgeLabel;html=1;align=center;verticalAlign=middle;resizable=0;points=[];" vertex="1" connectable="0" parent="Oo9Ps6nGQFib3HuytZvL-57">
          <mxGeometry x="-0.1114" y="3" relative="1" as="geometry">
            <mxPoint as="offset" />
          </mxGeometry>
        </mxCell>
        <mxCell id="A8csdUFqLkKtNQUayESd-79" style="edgeStyle=orthogonalEdgeStyle;rounded=1;orthogonalLoop=1;jettySize=auto;html=1;exitX=0.5;exitY=1;exitDx=0;exitDy=0;entryX=0.5;entryY=0;entryDx=0;entryDy=0;" edge="1" parent="g4Tu53j7OXlI4C-ANw2K-3" source="Oo9Ps6nGQFib3HuytZvL-5" target="A8csdUFqLkKtNQUayESd-78">
          <mxGeometry relative="1" as="geometry" />
        </mxCell>
        <mxCell id="Oo9Ps6nGQFib3HuytZvL-5" value="If the PO includes Expensive Item" style="rhombus;whiteSpace=wrap;html=1;" vertex="1" parent="g4Tu53j7OXlI4C-ANw2K-3">
          <mxGeometry x="382.5" y="433.5" width="155" height="93" as="geometry" />
        </mxCell>
        <mxCell id="A8csdUFqLkKtNQUayESd-106" style="edgeStyle=orthogonalEdgeStyle;rounded=1;orthogonalLoop=1;jettySize=auto;html=1;exitX=0;exitY=0.5;exitDx=0;exitDy=0;entryX=0.5;entryY=0;entryDx=0;entryDy=0;" edge="1" parent="g4Tu53j7OXlI4C-ANw2K-3" source="Oo9Ps6nGQFib3HuytZvL-27" target="Oo9Ps6nGQFib3HuytZvL-28">
          <mxGeometry relative="1" as="geometry" />
        </mxCell>
        <mxCell id="A8csdUFqLkKtNQUayESd-107" value="Y" style="edgeLabel;html=1;align=center;verticalAlign=middle;resizable=0;points=[];" vertex="1" connectable="0" parent="A8csdUFqLkKtNQUayESd-106">
          <mxGeometry x="-0.6134" y="-4" relative="1" as="geometry">
            <mxPoint as="offset" />
          </mxGeometry>
        </mxCell>
        <mxCell id="A8csdUFqLkKtNQUayESd-108" style="edgeStyle=orthogonalEdgeStyle;rounded=1;orthogonalLoop=1;jettySize=auto;html=1;exitX=1;exitY=0.5;exitDx=0;exitDy=0;entryX=0.5;entryY=0;entryDx=0;entryDy=0;" edge="1" parent="g4Tu53j7OXlI4C-ANw2K-3" source="Oo9Ps6nGQFib3HuytZvL-27" target="Oo9Ps6nGQFib3HuytZvL-31">
          <mxGeometry relative="1" as="geometry" />
        </mxCell>
        <mxCell id="A8csdUFqLkKtNQUayESd-109" value="N" style="edgeLabel;html=1;align=center;verticalAlign=middle;resizable=0;points=[];" vertex="1" connectable="0" parent="A8csdUFqLkKtNQUayESd-108">
          <mxGeometry x="-0.5659" relative="1" as="geometry">
            <mxPoint as="offset" />
          </mxGeometry>
        </mxCell>
        <mxCell id="Oo9Ps6nGQFib3HuytZvL-27" value="If the PO includes the &lt;br&gt;high-volume shipment depends on the outbound volume" style="rhombus;whiteSpace=wrap;html=1;" vertex="1" parent="g4Tu53j7OXlI4C-ANw2K-3">
          <mxGeometry x="911.75" y="823" width="181.25" height="99" as="geometry" />
        </mxCell>
        <mxCell id="A8csdUFqLkKtNQUayESd-172" style="edgeStyle=orthogonalEdgeStyle;rounded=1;orthogonalLoop=1;jettySize=auto;html=1;exitX=0.5;exitY=1;exitDx=0;exitDy=0;entryX=0.5;entryY=0;entryDx=0;entryDy=0;" edge="1" parent="g4Tu53j7OXlI4C-ANw2K-3" source="Oo9Ps6nGQFib3HuytZvL-28" target="Oo9Ps6nGQFib3HuytZvL-105">
          <mxGeometry relative="1" as="geometry" />
        </mxCell>
        <mxCell id="Oo9Ps6nGQFib3HuytZvL-28" value="Generate FULL-Pallet picking strategy" style="rounded=1;whiteSpace=wrap;html=1;" vertex="1" parent="g4Tu53j7OXlI4C-ANw2K-3">
          <mxGeometry x="794" y="941.5" width="200" height="60" as="geometry" />
        </mxCell>
        <mxCell id="A8csdUFqLkKtNQUayESd-174" style="edgeStyle=orthogonalEdgeStyle;rounded=1;orthogonalLoop=1;jettySize=auto;html=1;exitX=0.5;exitY=1;exitDx=0;exitDy=0;entryX=0.5;entryY=0;entryDx=0;entryDy=0;" edge="1" parent="g4Tu53j7OXlI4C-ANw2K-3" source="Oo9Ps6nGQFib3HuytZvL-31" target="Oo9Ps6nGQFib3HuytZvL-105">
          <mxGeometry relative="1" as="geometry">
            <Array as="points">
              <mxPoint x="1143" y="1087" />
              <mxPoint x="894" y="1087" />
            </Array>
          </mxGeometry>
        </mxCell>
        <mxCell id="Oo9Ps6nGQFib3HuytZvL-31" value="Generate BATCH picking strategy or WAVE picking strategy &lt;br&gt;specific to each store" style="rounded=1;whiteSpace=wrap;html=1;" vertex="1" parent="g4Tu53j7OXlI4C-ANw2K-3">
          <mxGeometry x="1043" y="941.5" width="200" height="60" as="geometry" />
        </mxCell>
        <mxCell id="A8csdUFqLkKtNQUayESd-165" style="edgeStyle=orthogonalEdgeStyle;rounded=1;orthogonalLoop=1;jettySize=auto;html=1;exitX=1;exitY=0.5;exitDx=0;exitDy=0;entryX=1;entryY=0.5;entryDx=0;entryDy=0;" edge="1" parent="g4Tu53j7OXlI4C-ANw2K-3" source="Oo9Ps6nGQFib3HuytZvL-35" target="Oo9Ps6nGQFib3HuytZvL-118">
          <mxGeometry relative="1" as="geometry" />
        </mxCell>
        <mxCell id="Oo9Ps6nGQFib3HuytZvL-35" value="Generate Optimal Picking Path&lt;br&gt;(Factors: Item Volume &amp;amp; Weight)" style="rounded=1;whiteSpace=wrap;html=1;" vertex="1" parent="g4Tu53j7OXlI4C-ANw2K-3">
          <mxGeometry x="879" y="317" width="200" height="60" as="geometry" />
        </mxCell>
        <mxCell id="Oo9Ps6nGQFib3HuytZvL-51" style="edgeStyle=orthogonalEdgeStyle;orthogonalLoop=1;jettySize=auto;html=1;exitX=0.5;exitY=1;exitDx=0;exitDy=0;" edge="1" parent="g4Tu53j7OXlI4C-ANw2K-3" source="Oo9Ps6nGQFib3HuytZvL-42" target="Oo9Ps6nGQFib3HuytZvL-50">
          <mxGeometry relative="1" as="geometry" />
        </mxCell>
        <mxCell id="Oo9Ps6nGQFib3HuytZvL-42" value="Equipment Models Data Call" style="rounded=1;whiteSpace=wrap;html=1;" vertex="1" parent="g4Tu53j7OXlI4C-ANw2K-3">
          <mxGeometry x="599" y="178" width="200" height="60" as="geometry" />
        </mxCell>
        <mxCell id="Oo9Ps6nGQFib3HuytZvL-56" style="edgeStyle=orthogonalEdgeStyle;rounded=1;orthogonalLoop=1;jettySize=auto;html=1;exitX=1;exitY=0.5;exitDx=0;exitDy=0;entryX=0;entryY=0.5;entryDx=0;entryDy=0;" edge="1" parent="g4Tu53j7OXlI4C-ANw2K-3" source="Oo9Ps6nGQFib3HuytZvL-50" target="Oo9Ps6nGQFib3HuytZvL-35">
          <mxGeometry relative="1" as="geometry" />
        </mxCell>
        <mxCell id="Oo9Ps6nGQFib3HuytZvL-50" value="Type-Equipment-User&lt;br&gt;Binding Record" style="rounded=1;whiteSpace=wrap;html=1;" vertex="1" parent="g4Tu53j7OXlI4C-ANw2K-3">
          <mxGeometry x="599" y="317" width="200" height="60" as="geometry" />
        </mxCell>
        <mxCell id="Oo9Ps6nGQFib3HuytZvL-52" value="Products are linked to specific zones, &lt;br&gt;and these zones are bound to particular types of equipments" style="text;html=1;align=center;verticalAlign=middle;resizable=0;points=[];autosize=1;strokeColor=none;fillColor=none;" vertex="1" parent="g4Tu53j7OXlI4C-ANw2K-3">
          <mxGeometry x="55.63" y="168" width="350" height="40" as="geometry" />
        </mxCell>
        <mxCell id="Oo9Ps6nGQFib3HuytZvL-53" value="Pickers scan the equipment info to bind it with their user profile" style="text;html=1;align=center;verticalAlign=middle;resizable=0;points=[];autosize=1;strokeColor=none;fillColor=none;" vertex="1" parent="g4Tu53j7OXlI4C-ANw2K-3">
          <mxGeometry x="925" y="178" width="360" height="30" as="geometry" />
        </mxCell>
        <mxCell id="Oo9Ps6nGQFib3HuytZvL-66" value="Generate Exclusive Picking Task" style="rounded=1;whiteSpace=wrap;html=1;" vertex="1" parent="g4Tu53j7OXlI4C-ANw2K-3">
          <mxGeometry x="1068" y="1163" width="200" height="60" as="geometry" />
        </mxCell>
        <mxCell id="Oo9Ps6nGQFib3HuytZvL-105" value="Generate General Picking Task" style="rounded=1;whiteSpace=wrap;html=1;" vertex="1" parent="g4Tu53j7OXlI4C-ANw2K-3">
          <mxGeometry x="794" y="1163" width="200" height="60" as="geometry" />
        </mxCell>
        <mxCell id="A8csdUFqLkKtNQUayESd-7" style="edgeStyle=orthogonalEdgeStyle;rounded=1;orthogonalLoop=1;jettySize=auto;html=1;exitX=0.5;exitY=1;exitDx=0;exitDy=0;entryX=0.5;entryY=0;entryDx=0;entryDy=0;" edge="1" parent="g4Tu53j7OXlI4C-ANw2K-3" source="A8csdUFqLkKtNQUayESd-3" target="A8csdUFqLkKtNQUayESd-5">
          <mxGeometry relative="1" as="geometry" />
        </mxCell>
        <mxCell id="A8csdUFqLkKtNQUayESd-3" value="Demand-Based Replenishment Checking" style="rounded=1;whiteSpace=wrap;html=1;" vertex="1" parent="g4Tu53j7OXlI4C-ANw2K-3">
          <mxGeometry x="1000" y="450" width="200" height="60" as="geometry" />
        </mxCell>
        <mxCell id="A8csdUFqLkKtNQUayESd-166" style="edgeStyle=orthogonalEdgeStyle;rounded=1;orthogonalLoop=1;jettySize=auto;html=1;exitX=1;exitY=0.5;exitDx=0;exitDy=0;entryX=0.5;entryY=0;entryDx=0;entryDy=0;" edge="1" parent="g4Tu53j7OXlI4C-ANw2K-3" source="A8csdUFqLkKtNQUayESd-5" target="Oo9Ps6nGQFib3HuytZvL-8">
          <mxGeometry relative="1" as="geometry" />
        </mxCell>
        <mxCell id="A8csdUFqLkKtNQUayESd-167" value="Y" style="edgeLabel;html=1;align=center;verticalAlign=middle;resizable=0;points=[];" vertex="1" connectable="0" parent="A8csdUFqLkKtNQUayESd-166">
          <mxGeometry x="-0.7661" relative="1" as="geometry">
            <mxPoint x="-1" as="offset" />
          </mxGeometry>
        </mxCell>
        <mxCell id="A8csdUFqLkKtNQUayESd-168" style="edgeStyle=orthogonalEdgeStyle;rounded=1;orthogonalLoop=1;jettySize=auto;html=1;exitX=0;exitY=0.5;exitDx=0;exitDy=0;entryX=0.5;entryY=0;entryDx=0;entryDy=0;" edge="1" parent="g4Tu53j7OXlI4C-ANw2K-3" source="A8csdUFqLkKtNQUayESd-5" target="A8csdUFqLkKtNQUayESd-14">
          <mxGeometry relative="1" as="geometry">
            <Array as="points">
              <mxPoint x="800" y="607" />
              <mxPoint x="800" y="1137" />
              <mxPoint x="645" y="1137" />
            </Array>
          </mxGeometry>
        </mxCell>
        <mxCell id="A8csdUFqLkKtNQUayESd-169" value="N" style="edgeLabel;html=1;align=center;verticalAlign=middle;resizable=0;points=[];" vertex="1" connectable="0" parent="A8csdUFqLkKtNQUayESd-168">
          <mxGeometry x="-0.6091" relative="1" as="geometry">
            <mxPoint x="-1" as="offset" />
          </mxGeometry>
        </mxCell>
        <mxCell id="A8csdUFqLkKtNQUayESd-5" value="If the inventory quantity &lt;br&gt;fulfills the PO quantity" style="rhombus;whiteSpace=wrap;html=1;" vertex="1" parent="g4Tu53j7OXlI4C-ANw2K-3">
          <mxGeometry x="1006" y="557" width="188" height="99" as="geometry" />
        </mxCell>
        <mxCell id="Oo9Ps6nGQFib3HuytZvL-107" value="The WMS provides an option for categorizing merchandise" style="shape=note;whiteSpace=wrap;html=1;backgroundOutline=1;darkOpacity=0.05;rounded=1;fillColor=#FFFF99;" vertex="1" parent="g4Tu53j7OXlI4C-ANw2K-3">
          <mxGeometry x="119" y="377" width="160" height="87" as="geometry" />
        </mxCell>
        <mxCell id="A8csdUFqLkKtNQUayESd-175" style="edgeStyle=orthogonalEdgeStyle;rounded=1;orthogonalLoop=1;jettySize=auto;html=1;exitX=0.5;exitY=1;exitDx=0;exitDy=0;entryX=0.5;entryY=0;entryDx=0;entryDy=0;" edge="1" parent="g4Tu53j7OXlI4C-ANw2K-3" source="Oo9Ps6nGQFib3HuytZvL-8" target="Oo9Ps6nGQFib3HuytZvL-66">
          <mxGeometry relative="1" as="geometry">
            <Array as="points">
              <mxPoint x="1260" y="823" />
              <mxPoint x="1260" y="1067" />
              <mxPoint x="1168" y="1067" />
            </Array>
          </mxGeometry>
        </mxCell>
        <mxCell id="Oo9Ps6nGQFib3HuytZvL-8" value="Generate exclusive picking strategy&amp;nbsp;" style="rounded=1;whiteSpace=wrap;html=1;" vertex="1" parent="g4Tu53j7OXlI4C-ANw2K-3">
          <mxGeometry x="1185" y="747" width="150" height="60" as="geometry" />
        </mxCell>
        <mxCell id="A8csdUFqLkKtNQUayESd-14" value="Generate Demand-Based Replenishment Strategy&amp;nbsp;" style="rounded=1;whiteSpace=wrap;html=1;" vertex="1" parent="g4Tu53j7OXlI4C-ANw2K-3">
          <mxGeometry x="570" y="1146.5" width="150" height="60" as="geometry" />
        </mxCell>
        <mxCell id="A8csdUFqLkKtNQUayESd-83" style="edgeStyle=orthogonalEdgeStyle;rounded=1;orthogonalLoop=1;jettySize=auto;html=1;exitX=1;exitY=0.5;exitDx=0;exitDy=0;entryX=0.5;entryY=0;entryDx=0;entryDy=0;" edge="1" parent="g4Tu53j7OXlI4C-ANw2K-3" source="A8csdUFqLkKtNQUayESd-78" target="Oo9Ps6nGQFib3HuytZvL-27">
          <mxGeometry relative="1" as="geometry" />
        </mxCell>
        <mxCell id="A8csdUFqLkKtNQUayESd-84" value="Y" style="edgeLabel;html=1;align=center;verticalAlign=middle;resizable=0;points=[];" vertex="1" connectable="0" parent="A8csdUFqLkKtNQUayESd-83">
          <mxGeometry x="-0.7269" y="-1" relative="1" as="geometry">
            <mxPoint as="offset" />
          </mxGeometry>
        </mxCell>
        <mxCell id="A8csdUFqLkKtNQUayESd-89" style="edgeStyle=orthogonalEdgeStyle;rounded=1;orthogonalLoop=1;jettySize=auto;html=1;exitX=0;exitY=0.5;exitDx=0;exitDy=0;entryX=0.5;entryY=0;entryDx=0;entryDy=0;" edge="1" parent="g4Tu53j7OXlI4C-ANw2K-3" source="A8csdUFqLkKtNQUayESd-78" target="A8csdUFqLkKtNQUayESd-86">
          <mxGeometry relative="1" as="geometry" />
        </mxCell>
        <mxCell id="A8csdUFqLkKtNQUayESd-90" value="N" style="edgeLabel;html=1;align=center;verticalAlign=middle;resizable=0;points=[];" vertex="1" connectable="0" parent="A8csdUFqLkKtNQUayESd-89">
          <mxGeometry x="-0.7804" y="-1" relative="1" as="geometry">
            <mxPoint as="offset" />
          </mxGeometry>
        </mxCell>
        <mxCell id="A8csdUFqLkKtNQUayESd-78" value="Replenishment Checking &lt;br&gt;if the quantity of&amp;nbsp;items in the inventory &lt;br&gt;can fullfill the PO" style="rhombus;whiteSpace=wrap;html=1;" vertex="1" parent="g4Tu53j7OXlI4C-ANw2K-3">
          <mxGeometry x="582.94" y="721" width="208.12" height="123" as="geometry" />
        </mxCell>
        <mxCell id="A8csdUFqLkKtNQUayESd-99" style="edgeStyle=orthogonalEdgeStyle;rounded=1;orthogonalLoop=1;jettySize=auto;html=1;exitX=1;exitY=0.5;exitDx=0;exitDy=0;entryX=0.5;entryY=0;entryDx=0;entryDy=0;" edge="1" parent="g4Tu53j7OXlI4C-ANw2K-3" source="A8csdUFqLkKtNQUayESd-86" target="A8csdUFqLkKtNQUayESd-104">
          <mxGeometry relative="1" as="geometry">
            <mxPoint x="357" y="837" as="targetPoint" />
          </mxGeometry>
        </mxCell>
        <mxCell id="A8csdUFqLkKtNQUayESd-100" value="Y" style="edgeLabel;html=1;align=center;verticalAlign=middle;resizable=0;points=[];" vertex="1" connectable="0" parent="A8csdUFqLkKtNQUayESd-99">
          <mxGeometry x="-0.6968" y="3" relative="1" as="geometry">
            <mxPoint y="1" as="offset" />
          </mxGeometry>
        </mxCell>
        <mxCell id="A8csdUFqLkKtNQUayESd-102" style="edgeStyle=orthogonalEdgeStyle;rounded=1;orthogonalLoop=1;jettySize=auto;html=1;exitX=0;exitY=0.5;exitDx=0;exitDy=0;entryX=0.5;entryY=0;entryDx=0;entryDy=0;" edge="1" parent="g4Tu53j7OXlI4C-ANw2K-3" source="A8csdUFqLkKtNQUayESd-86" target="A8csdUFqLkKtNQUayESd-101">
          <mxGeometry relative="1" as="geometry" />
        </mxCell>
        <mxCell id="A8csdUFqLkKtNQUayESd-103" value="N" style="edgeLabel;html=1;align=center;verticalAlign=middle;resizable=0;points=[];" vertex="1" connectable="0" parent="A8csdUFqLkKtNQUayESd-102">
          <mxGeometry x="-0.571" y="1" relative="1" as="geometry">
            <mxPoint as="offset" />
          </mxGeometry>
        </mxCell>
        <mxCell id="A8csdUFqLkKtNQUayESd-86" value="if the out-stock item is &lt;br&gt;a high-volume item &lt;br&gt;depends on the &lt;br&gt;outbound volume" style="rhombus;whiteSpace=wrap;html=1;" vertex="1" parent="g4Tu53j7OXlI4C-ANw2K-3">
          <mxGeometry x="279" y="831" width="181.25" height="99" as="geometry" />
        </mxCell>
        <mxCell id="A8csdUFqLkKtNQUayESd-97" value="For the fixed value, apply scheduled replenishment strategy; for the changes, apply demand-base replenishment strategy" style="rounded=1;whiteSpace=wrap;html=1;" vertex="1" parent="g4Tu53j7OXlI4C-ANw2K-3">
          <mxGeometry x="325" y="1146.5" width="200" height="60" as="geometry" />
        </mxCell>
        <mxCell id="A8csdUFqLkKtNQUayESd-129" style="edgeStyle=orthogonalEdgeStyle;rounded=1;orthogonalLoop=1;jettySize=auto;html=1;exitX=0;exitY=0.5;exitDx=0;exitDy=0;entryX=0.5;entryY=0;entryDx=0;entryDy=0;" edge="1" parent="g4Tu53j7OXlI4C-ANw2K-3" source="A8csdUFqLkKtNQUayESd-101" target="A8csdUFqLkKtNQUayESd-127">
          <mxGeometry relative="1" as="geometry" />
        </mxCell>
        <mxCell id="A8csdUFqLkKtNQUayESd-130" value="N" style="edgeLabel;html=1;align=center;verticalAlign=middle;resizable=0;points=[];" vertex="1" connectable="0" parent="A8csdUFqLkKtNQUayESd-129">
          <mxGeometry x="-0.2382" y="-2" relative="1" as="geometry">
            <mxPoint as="offset" />
          </mxGeometry>
        </mxCell>
        <mxCell id="A8csdUFqLkKtNQUayESd-101" value="if it is a produce" style="rhombus;whiteSpace=wrap;html=1;" vertex="1" parent="g4Tu53j7OXlI4C-ANw2K-3">
          <mxGeometry x="118.99999999999999" y="922" width="181.25" height="99" as="geometry" />
        </mxCell>
        <mxCell id="A8csdUFqLkKtNQUayESd-126" style="edgeStyle=orthogonalEdgeStyle;rounded=1;orthogonalLoop=1;jettySize=auto;html=1;exitX=1;exitY=0.5;exitDx=0;exitDy=0;entryX=0.5;entryY=0;entryDx=0;entryDy=0;" edge="1" parent="g4Tu53j7OXlI4C-ANw2K-3" source="A8csdUFqLkKtNQUayESd-101" target="A8csdUFqLkKtNQUayESd-125">
          <mxGeometry relative="1" as="geometry" />
        </mxCell>
        <mxCell id="A8csdUFqLkKtNQUayESd-128" value="Y" style="edgeLabel;html=1;align=center;verticalAlign=middle;resizable=0;points=[];" vertex="1" connectable="0" parent="A8csdUFqLkKtNQUayESd-126">
          <mxGeometry x="-0.366" y="-3" relative="1" as="geometry">
            <mxPoint as="offset" />
          </mxGeometry>
        </mxCell>
        <mxCell id="A8csdUFqLkKtNQUayESd-113" style="edgeStyle=orthogonalEdgeStyle;rounded=1;orthogonalLoop=1;jettySize=auto;html=1;exitX=1;exitY=0.5;exitDx=0;exitDy=0;entryX=0.539;entryY=-0.013;entryDx=0;entryDy=0;entryPerimeter=0;" edge="1" parent="g4Tu53j7OXlI4C-ANw2K-3" source="A8csdUFqLkKtNQUayESd-104" target="A8csdUFqLkKtNQUayESd-112">
          <mxGeometry relative="1" as="geometry" />
        </mxCell>
        <mxCell id="A8csdUFqLkKtNQUayESd-121" value="N" style="edgeLabel;html=1;align=center;verticalAlign=middle;resizable=0;points=[];" vertex="1" connectable="0" parent="A8csdUFqLkKtNQUayESd-113">
          <mxGeometry x="-0.3148" y="-1" relative="1" as="geometry">
            <mxPoint as="offset" />
          </mxGeometry>
        </mxCell>
        <mxCell id="A8csdUFqLkKtNQUayESd-116" style="edgeStyle=orthogonalEdgeStyle;rounded=1;orthogonalLoop=1;jettySize=auto;html=1;exitX=0;exitY=0.5;exitDx=0;exitDy=0;entryX=0.5;entryY=0;entryDx=0;entryDy=0;" edge="1" parent="g4Tu53j7OXlI4C-ANw2K-3" source="A8csdUFqLkKtNQUayESd-104" target="A8csdUFqLkKtNQUayESd-97">
          <mxGeometry relative="1" as="geometry" />
        </mxCell>
        <mxCell id="A8csdUFqLkKtNQUayESd-120" value="Y" style="edgeLabel;html=1;align=center;verticalAlign=middle;resizable=0;points=[];" vertex="1" connectable="0" parent="A8csdUFqLkKtNQUayESd-116">
          <mxGeometry x="-0.5202" y="-1" relative="1" as="geometry">
            <mxPoint as="offset" />
          </mxGeometry>
        </mxCell>
        <mxCell id="A8csdUFqLkKtNQUayESd-104" value="If there is any surge &lt;br&gt;in the items&#39; quantity &lt;br&gt;on PO list" style="rhombus;whiteSpace=wrap;html=1;" vertex="1" parent="g4Tu53j7OXlI4C-ANw2K-3">
          <mxGeometry x="449.38" y="922" width="181.25" height="99" as="geometry" />
        </mxCell>
        <mxCell id="A8csdUFqLkKtNQUayESd-112" value="Scheduled Replenishment" style="rounded=1;whiteSpace=wrap;html=1;" vertex="1" parent="g4Tu53j7OXlI4C-ANw2K-3">
          <mxGeometry x="570" y="1067" width="150" height="60" as="geometry" />
        </mxCell>
        <mxCell id="A8csdUFqLkKtNQUayESd-125" value="Same-Day Replenishment" style="rounded=1;whiteSpace=wrap;html=1;" vertex="1" parent="g4Tu53j7OXlI4C-ANw2K-3">
          <mxGeometry x="250" y="1047" width="150" height="60" as="geometry" />
        </mxCell>
        <mxCell id="A8csdUFqLkKtNQUayESd-127" value="Demand-Based (WAVE) Replenishment" style="rounded=1;whiteSpace=wrap;html=1;" vertex="1" parent="g4Tu53j7OXlI4C-ANw2K-3">
          <mxGeometry x="19.999999999999993" y="1047" width="150" height="60" as="geometry" />
        </mxCell>
        <mxCell id="A8csdUFqLkKtNQUayESd-145" style="edgeStyle=orthogonalEdgeStyle;rounded=1;orthogonalLoop=1;jettySize=auto;html=1;exitX=0.5;exitY=1;exitDx=0;exitDy=0;entryX=0.5;entryY=0;entryDx=0;entryDy=0;" edge="1" parent="g4Tu53j7OXlI4C-ANw2K-3" source="A8csdUFqLkKtNQUayESd-141" target="A8csdUFqLkKtNQUayESd-143">
          <mxGeometry relative="1" as="geometry" />
        </mxCell>
        <mxCell id="A8csdUFqLkKtNQUayESd-146" style="edgeStyle=orthogonalEdgeStyle;rounded=1;orthogonalLoop=1;jettySize=auto;html=1;exitX=0.5;exitY=1;exitDx=0;exitDy=0;entryX=0.5;entryY=0;entryDx=0;entryDy=0;" edge="1" parent="g4Tu53j7OXlI4C-ANw2K-3" source="A8csdUFqLkKtNQUayESd-141" target="A8csdUFqLkKtNQUayESd-144">
          <mxGeometry relative="1" as="geometry" />
        </mxCell>
        <mxCell id="A8csdUFqLkKtNQUayESd-141" value="Generate Item Counting Guidance Based on Items&#39; outbound volume" style="rounded=1;whiteSpace=wrap;html=1;" vertex="1" parent="g4Tu53j7OXlI4C-ANw2K-3">
          <mxGeometry x="920" y="1347" width="200" height="60" as="geometry" />
        </mxCell>
        <mxCell id="A8csdUFqLkKtNQUayESd-143" value="Regular Item" style="rounded=1;whiteSpace=wrap;html=1;" vertex="1" parent="g4Tu53j7OXlI4C-ANw2K-3">
          <mxGeometry x="819" y="1447" width="150" height="60" as="geometry" />
        </mxCell>
        <mxCell id="A8csdUFqLkKtNQUayESd-144" value="High-volume Item" style="rounded=1;whiteSpace=wrap;html=1;" vertex="1" parent="g4Tu53j7OXlI4C-ANw2K-3">
          <mxGeometry x="1068" y="1447" width="150" height="60" as="geometry" />
        </mxCell>
        <mxCell id="A8csdUFqLkKtNQUayESd-17" value="Demand-Based (WAVE) Replenishment:&lt;br&gt;Full pallets in storage are broken down, and items are replenished based on their specific quantity needs." style="shape=note;whiteSpace=wrap;html=1;backgroundOutline=1;darkOpacity=0.05;rounded=1;fillColor=#FFFF99;" vertex="1" parent="g4Tu53j7OXlI4C-ANw2K-3">
          <mxGeometry x="1140" y="357" width="170" height="107" as="geometry" />
        </mxCell>
        <mxCell id="g4Tu53j7OXlI4C-ANw2K-4" value="Others (System or Role)" style="swimlane;whiteSpace=wrap;html=1;" vertex="1" parent="QeKCGX9Y87ppXaSMYQgq-1">
          <mxGeometry x="1649" y="23" width="790" height="1987" as="geometry" />
        </mxCell>
        <mxCell id="A8csdUFqLkKtNQUayESd-178" value="" style="rounded=0;whiteSpace=wrap;html=1;" vertex="1" parent="g4Tu53j7OXlI4C-ANw2K-4">
          <mxGeometry x="270" y="590" width="500" height="480" as="geometry" />
        </mxCell>
        <mxCell id="Oo9Ps6nGQFib3HuytZvL-15" value="Picker" style="shape=umlActor;verticalLabelPosition=bottom;verticalAlign=top;html=1;outlineConnect=0;" vertex="1" parent="g4Tu53j7OXlI4C-ANw2K-4">
          <mxGeometry x="320" y="175" width="30" height="60" as="geometry" />
        </mxCell>
        <mxCell id="Oo9Ps6nGQFib3HuytZvL-19" value="Log into the system as picker by scanning the equipment" style="rounded=0;whiteSpace=wrap;html=1;" vertex="1" parent="g4Tu53j7OXlI4C-ANw2K-4">
          <mxGeometry x="180" y="181" width="120" height="57" as="geometry" />
        </mxCell>
        <mxCell id="A8csdUFqLkKtNQUayESd-151" style="edgeStyle=orthogonalEdgeStyle;rounded=1;orthogonalLoop=1;jettySize=auto;html=1;exitX=1;exitY=0.5;exitDx=0;exitDy=0;entryX=0.5;entryY=0;entryDx=0;entryDy=0;" edge="1" parent="g4Tu53j7OXlI4C-ANw2K-4" source="Oo9Ps6nGQFib3HuytZvL-120" target="A8csdUFqLkKtNQUayESd-148">
          <mxGeometry relative="1" as="geometry" />
        </mxCell>
        <mxCell id="A8csdUFqLkKtNQUayESd-154" style="edgeStyle=orthogonalEdgeStyle;rounded=1;orthogonalLoop=1;jettySize=auto;html=1;exitX=1;exitY=0.5;exitDx=0;exitDy=0;entryX=0.5;entryY=0;entryDx=0;entryDy=0;" edge="1" parent="g4Tu53j7OXlI4C-ANw2K-4" source="Oo9Ps6nGQFib3HuytZvL-120" target="A8csdUFqLkKtNQUayESd-153">
          <mxGeometry relative="1" as="geometry" />
        </mxCell>
        <mxCell id="Oo9Ps6nGQFib3HuytZvL-120" value="Click Device to Get Task Assign" style="rounded=0;whiteSpace=wrap;html=1;" vertex="1" parent="g4Tu53j7OXlI4C-ANw2K-4">
          <mxGeometry x="150" y="266" width="120" height="60" as="geometry" />
        </mxCell>
        <mxCell id="Oo9Ps6nGQFib3HuytZvL-123" value="Picker" style="shape=umlActor;verticalLabelPosition=bottom;verticalAlign=top;html=1;outlineConnect=0;" vertex="1" parent="g4Tu53j7OXlI4C-ANw2K-4">
          <mxGeometry x="100" y="277" width="30" height="60" as="geometry" />
        </mxCell>
        <mxCell id="A8csdUFqLkKtNQUayESd-160" style="edgeStyle=orthogonalEdgeStyle;rounded=1;orthogonalLoop=1;jettySize=auto;html=1;exitX=0.5;exitY=1;exitDx=0;exitDy=0;entryX=0.5;entryY=0;entryDx=0;entryDy=0;" edge="1" parent="g4Tu53j7OXlI4C-ANw2K-4" source="A8csdUFqLkKtNQUayESd-148" target="A8csdUFqLkKtNQUayESd-158">
          <mxGeometry relative="1" as="geometry">
            <Array as="points">
              <mxPoint x="450" y="607" />
              <mxPoint x="404" y="607" />
            </Array>
          </mxGeometry>
        </mxCell>
        <mxCell id="A8csdUFqLkKtNQUayESd-148" value="scan the single case and enter the quantity of items being picked manually into the wms" style="rounded=0;whiteSpace=wrap;html=1;" vertex="1" parent="g4Tu53j7OXlI4C-ANw2K-4">
          <mxGeometry x="350" y="417" width="200" height="60" as="geometry" />
        </mxCell>
        <mxCell id="A8csdUFqLkKtNQUayESd-159" style="edgeStyle=orthogonalEdgeStyle;rounded=1;orthogonalLoop=1;jettySize=auto;html=1;exitX=0.5;exitY=1;exitDx=0;exitDy=0;entryX=0.5;entryY=0;entryDx=0;entryDy=0;" edge="1" parent="g4Tu53j7OXlI4C-ANw2K-4" source="A8csdUFqLkKtNQUayESd-153" target="A8csdUFqLkKtNQUayESd-158">
          <mxGeometry relative="1" as="geometry" />
        </mxCell>
        <mxCell id="A8csdUFqLkKtNQUayESd-153" value="scan the pallet code, the system populates the quantity automatically" style="rounded=0;whiteSpace=wrap;html=1;" vertex="1" parent="g4Tu53j7OXlI4C-ANw2K-4">
          <mxGeometry x="220" y="517" width="200" height="60" as="geometry" />
        </mxCell>
        <mxCell id="A8csdUFqLkKtNQUayESd-181" style="edgeStyle=orthogonalEdgeStyle;rounded=1;orthogonalLoop=1;jettySize=auto;html=1;exitX=1;exitY=0.5;exitDx=0;exitDy=0;entryX=0.5;entryY=0;entryDx=0;entryDy=0;" edge="1" parent="g4Tu53j7OXlI4C-ANw2K-4" source="A8csdUFqLkKtNQUayESd-158" target="A8csdUFqLkKtNQUayESd-180">
          <mxGeometry relative="1" as="geometry" />
        </mxCell>
        <mxCell id="A8csdUFqLkKtNQUayESd-182" value="Y" style="edgeLabel;html=1;align=center;verticalAlign=middle;resizable=0;points=[];" vertex="1" connectable="0" parent="A8csdUFqLkKtNQUayESd-181">
          <mxGeometry x="-0.4261" y="1" relative="1" as="geometry">
            <mxPoint as="offset" />
          </mxGeometry>
        </mxCell>
        <mxCell id="A8csdUFqLkKtNQUayESd-158" value="Any Broken/Missing Label" style="rhombus;whiteSpace=wrap;html=1;" vertex="1" parent="g4Tu53j7OXlI4C-ANw2K-4">
          <mxGeometry x="310" y="637" width="188" height="99" as="geometry" />
        </mxCell>
        <mxCell id="A8csdUFqLkKtNQUayESd-179" value="Broken: print a new one and retrieve the original pallet ID from the system via the location ID" style="rounded=0;whiteSpace=wrap;html=1;" vertex="1" parent="g4Tu53j7OXlI4C-ANw2K-4">
          <mxGeometry x="561" y="887" width="200" height="60" as="geometry" />
        </mxCell>
        <mxCell id="A8csdUFqLkKtNQUayESd-183" style="edgeStyle=orthogonalEdgeStyle;rounded=1;orthogonalLoop=1;jettySize=auto;html=1;exitX=1;exitY=0.5;exitDx=0;exitDy=0;entryX=0.5;entryY=0;entryDx=0;entryDy=0;" edge="1" parent="g4Tu53j7OXlI4C-ANw2K-4" source="A8csdUFqLkKtNQUayESd-180" target="A8csdUFqLkKtNQUayESd-179">
          <mxGeometry relative="1" as="geometry" />
        </mxCell>
        <mxCell id="A8csdUFqLkKtNQUayESd-184" value="Broken" style="edgeLabel;html=1;align=center;verticalAlign=middle;resizable=0;points=[];" vertex="1" connectable="0" parent="A8csdUFqLkKtNQUayESd-183">
          <mxGeometry x="-0.4404" y="2" relative="1" as="geometry">
            <mxPoint as="offset" />
          </mxGeometry>
        </mxCell>
        <mxCell id="A8csdUFqLkKtNQUayESd-180" value="Label is Missing or Broken" style="rhombus;whiteSpace=wrap;html=1;" vertex="1" parent="g4Tu53j7OXlI4C-ANw2K-4">
          <mxGeometry x="491" y="736" width="188" height="99" as="geometry" />
        </mxCell>
        <mxCell id="A8csdUFqLkKtNQUayESd-185" value="Missing: print a new one and retrieve the original pallet ID from the system via the location ID" style="rounded=0;whiteSpace=wrap;html=1;" vertex="1" parent="g4Tu53j7OXlI4C-ANw2K-4">
          <mxGeometry x="461" y="963.5" width="200" height="60" as="geometry" />
        </mxCell>
        <mxCell id="g4Tu53j7OXlI4C-ANw2K-2" value="SAP" style="swimlane;whiteSpace=wrap;html=1;" vertex="1" parent="QeKCGX9Y87ppXaSMYQgq-1">
          <mxGeometry y="23" width="320" height="1988" as="geometry" />
        </mxCell>
        <mxCell id="Oo9Ps6nGQFib3HuytZvL-3" value="Order Confirmation and PO Input" style="rounded=0;whiteSpace=wrap;html=1;" vertex="1" parent="g4Tu53j7OXlI4C-ANw2K-2">
          <mxGeometry x="90" y="317" width="120" height="60" as="geometry" />
        </mxCell>
        <mxCell id="Oo9Ps6nGQFib3HuytZvL-45" value="Product Types and Zones Data Call" style="rounded=0;whiteSpace=wrap;html=1;" vertex="1" parent="g4Tu53j7OXlI4C-ANw2K-2">
          <mxGeometry x="90" y="177" width="120" height="60" as="geometry" />
        </mxCell>
        <mxCell id="Oo9Ps6nGQFib3HuytZvL-108" value="MCH Data Call&lt;br&gt;(item category info)" style="rounded=0;whiteSpace=wrap;html=1;" vertex="1" parent="g4Tu53j7OXlI4C-ANw2K-2">
          <mxGeometry x="90" y="450" width="120" height="60" as="geometry" />
        </mxCell>
        <mxCell id="Oo9Ps6nGQFib3HuytZvL-109" value="" style="shape=flexArrow;endArrow=classic;startArrow=classic;html=1;rounded=1;exitX=1;exitY=0.5;exitDx=0;exitDy=0;entryX=0;entryY=0.5;entryDx=0;entryDy=0;" edge="1" parent="QeKCGX9Y87ppXaSMYQgq-1" source="Oo9Ps6nGQFib3HuytZvL-45" target="Oo9Ps6nGQFib3HuytZvL-42">
          <mxGeometry width="100" height="100" relative="1" as="geometry">
            <mxPoint x="520" y="420" as="sourcePoint" />
            <mxPoint x="620" y="320" as="targetPoint" />
          </mxGeometry>
        </mxCell>
        <mxCell id="Oo9Ps6nGQFib3HuytZvL-110" value="" style="shape=flexArrow;endArrow=classic;startArrow=classic;html=1;rounded=1;entryX=0;entryY=0.5;entryDx=0;entryDy=0;exitX=1;exitY=0.5;exitDx=0;exitDy=0;" edge="1" parent="QeKCGX9Y87ppXaSMYQgq-1" source="Oo9Ps6nGQFib3HuytZvL-42" target="Oo9Ps6nGQFib3HuytZvL-19">
          <mxGeometry width="100" height="100" relative="1" as="geometry">
            <mxPoint x="520" y="420" as="sourcePoint" />
            <mxPoint x="620" y="320" as="targetPoint" />
          </mxGeometry>
        </mxCell>
        <mxCell id="Oo9Ps6nGQFib3HuytZvL-111" value="" style="shape=flexArrow;endArrow=classic;html=1;rounded=1;exitX=1;exitY=0.5;exitDx=0;exitDy=0;entryX=0.011;entryY=0.5;entryDx=0;entryDy=0;entryPerimeter=0;" edge="1" parent="QeKCGX9Y87ppXaSMYQgq-1" source="Oo9Ps6nGQFib3HuytZvL-3" target="Oo9Ps6nGQFib3HuytZvL-4">
          <mxGeometry width="50" height="50" relative="1" as="geometry">
            <mxPoint x="550" y="440" as="sourcePoint" />
            <mxPoint x="600" y="390" as="targetPoint" />
          </mxGeometry>
        </mxCell>
        <mxCell id="Oo9Ps6nGQFib3HuytZvL-112" value="" style="shape=flexArrow;endArrow=classic;startArrow=classic;html=1;rounded=1;exitX=1;exitY=0.5;exitDx=0;exitDy=0;entryX=0;entryY=0.5;entryDx=0;entryDy=0;" edge="1" parent="QeKCGX9Y87ppXaSMYQgq-1" source="Oo9Ps6nGQFib3HuytZvL-108" target="Oo9Ps6nGQFib3HuytZvL-5">
          <mxGeometry width="100" height="100" relative="1" as="geometry">
            <mxPoint x="310" y="580" as="sourcePoint" />
            <mxPoint x="410" y="480" as="targetPoint" />
          </mxGeometry>
        </mxCell>
        <mxCell id="A8csdUFqLkKtNQUayESd-149" style="edgeStyle=orthogonalEdgeStyle;rounded=1;orthogonalLoop=1;jettySize=auto;html=1;exitX=1;exitY=0.5;exitDx=0;exitDy=0;entryX=0.5;entryY=1;entryDx=0;entryDy=0;" edge="1" parent="QeKCGX9Y87ppXaSMYQgq-1" source="Oo9Ps6nGQFib3HuytZvL-118" target="Oo9Ps6nGQFib3HuytZvL-120">
          <mxGeometry relative="1" as="geometry" />
        </mxCell>
        <mxCell id="A8csdUFqLkKtNQUayESd-150" style="edgeStyle=orthogonalEdgeStyle;rounded=1;orthogonalLoop=1;jettySize=auto;html=1;exitX=0.5;exitY=1;exitDx=0;exitDy=0;entryX=0.5;entryY=1;entryDx=0;entryDy=0;" edge="1" parent="QeKCGX9Y87ppXaSMYQgq-1" source="A8csdUFqLkKtNQUayESd-131" target="Oo9Ps6nGQFib3HuytZvL-120">
          <mxGeometry relative="1" as="geometry">
            <Array as="points">
              <mxPoint x="690" y="1310" />
              <mxPoint x="1860" y="1310" />
            </Array>
          </mxGeometry>
        </mxCell>
        <mxCell id="A8csdUFqLkKtNQUayESd-156" value="" style="endArrow=none;dashed=1;html=1;rounded=1;exitX=0.5;exitY=1;exitDx=0;exitDy=0;entryX=0.5;entryY=1;entryDx=0;entryDy=0;" edge="1" parent="QeKCGX9Y87ppXaSMYQgq-1" source="A8csdUFqLkKtNQUayESd-144" target="A8csdUFqLkKtNQUayESd-153">
          <mxGeometry width="50" height="50" relative="1" as="geometry">
            <mxPoint x="1275" y="1540" as="sourcePoint" />
            <mxPoint x="2120" y="510" as="targetPoint" />
            <Array as="points">
              <mxPoint x="1463" y="1570" />
              <mxPoint x="1970" y="1570" />
              <mxPoint x="1970" y="1340" />
              <mxPoint x="1970" y="1110" />
              <mxPoint x="1970" y="960" />
            </Array>
          </mxGeometry>
        </mxCell>
        <mxCell id="A8csdUFqLkKtNQUayESd-152" value="" style="endArrow=none;dashed=1;html=1;rounded=1;exitX=0.5;exitY=1;exitDx=0;exitDy=0;entryX=0.5;entryY=1;entryDx=0;entryDy=0;" edge="1" parent="QeKCGX9Y87ppXaSMYQgq-1" source="A8csdUFqLkKtNQUayESd-143" target="A8csdUFqLkKtNQUayESd-148">
          <mxGeometry width="50" height="50" relative="1" as="geometry">
            <mxPoint x="1570" y="1160" as="sourcePoint" />
            <mxPoint x="2020" y="1480" as="targetPoint" />
            <Array as="points">
              <mxPoint x="1214" y="1590" />
              <mxPoint x="1970" y="1590" />
              <mxPoint x="2100" y="1590" />
              <mxPoint x="2100" y="1500" />
              <mxPoint x="2100" y="1020" />
              <mxPoint x="2100" y="910" />
            </Array>
          </mxGeometry>
        </mxCell>
        <mxCell id="Oo9Ps6nGQFib3HuytZvL-20" value="If the task includes produce" style="rhombus;whiteSpace=wrap;html=1;" vertex="1" parent="1">
          <mxGeometry x="420" y="-390" width="140" height="83" as="geometry" />
        </mxCell>
        <mxCell id="Oo9Ps6nGQFib3HuytZvL-21" value="does produce have picking process? no? directly putaway?" style="rounded=1;whiteSpace=wrap;html=1;" vertex="1" parent="1">
          <mxGeometry x="200" y="-240" width="120" height="60" as="geometry" />
        </mxCell>
        <mxCell id="Oo9Ps6nGQFib3HuytZvL-22" style="edgeStyle=orthogonalEdgeStyle;orthogonalLoop=1;jettySize=auto;html=1;exitX=0;exitY=0.5;exitDx=0;exitDy=0;entryX=0.5;entryY=0;entryDx=0;entryDy=0;" edge="1" parent="1" source="Oo9Ps6nGQFib3HuytZvL-20" target="Oo9Ps6nGQFib3HuytZvL-21">
          <mxGeometry relative="1" as="geometry" />
        </mxCell>
        <mxCell id="Oo9Ps6nGQFib3HuytZvL-23" value="Yes" style="edgeLabel;html=1;align=center;verticalAlign=middle;resizable=0;points=[];" vertex="1" connectable="0" parent="Oo9Ps6nGQFib3HuytZvL-22">
          <mxGeometry x="-0.5504" relative="1" as="geometry">
            <mxPoint as="offset" />
          </mxGeometry>
        </mxCell>
      </root>
    </mxGraphModel>
  </diagram>
</mxfile>
